<?xml version="1.0" encoding="utf-8"?>
<!-- Generator: Adobe Illustrator 16.0.0, SVG Export Plug-In . SVG Version: 6.00 Build 0)  -->
<!DOCTYPE svg PUBLIC "-//W3C//DTD SVG 1.1//EN" "http://www.w3.org/Graphics/SVG/1.1/DTD/svg11.dtd">
<svg version="1.1" id="_x31_px" xmlns="http://www.w3.org/2000/svg" xmlns:xlink="http://www.w3.org/1999/xlink" x="0px" y="0px"
	 width="512px" height="512px" viewBox="0 0 512 512" enable-background="new 0 0 512 512" xml:space="preserve">
<path d="M458.667,234.667c-5.889,0-10.667-4.778-10.667-10.667V74.667C448,68.779,443.2,64,437.333,64h-42.666
	C388.778,64,384,59.221,384,53.333c0-5.888,4.778-10.667,10.667-10.667h42.666c17.643,0,32,14.357,32,32V224
	C469.333,229.888,464.555,234.667,458.667,234.667z"/>
<path d="M202.667,362.666H32c-17.643,0-32-14.356-32-32v-256c0-17.323,14.272-31.68,31.808-32h42.858
	c5.888,0,10.667,4.779,10.667,10.667C85.333,59.221,80.555,64,74.667,64H32c-5.781,0.106-10.667,4.885-10.667,10.667v256
	c0,5.889,4.8,10.668,10.667,10.668h170.667c5.888,0,10.667,4.777,10.667,10.666S208.555,362.666,202.667,362.666z"/>
<path d="M416,512c-5.888,0-10.667-4.778-10.667-10.667v-42.666c0-5.889,4.779-10.667,10.667-10.667s10.667,4.778,10.667,10.667
	v42.666C426.667,507.222,421.888,512,416,512z"/>
<path d="M352,512c-5.888,0-10.667-4.778-10.667-10.667v-42.666c0-5.889,4.779-10.667,10.667-10.667s10.667,4.778,10.667,10.667
	v42.666C362.667,507.222,357.888,512,352,512z"/>
<path d="M416,320c-5.888,0-10.667-4.779-10.667-10.666v-42.668c0-5.887,4.779-10.666,10.667-10.666s10.667,4.779,10.667,10.666
	v42.668C426.667,315.221,421.888,320,416,320z"/>
<path d="M352,320c-5.888,0-10.667-4.779-10.667-10.666v-42.668c0-5.887,4.779-10.666,10.667-10.666s10.667,4.779,10.667,10.666
	v42.668C362.667,315.221,357.888,320,352,320z"/>
<path d="M309.333,426.667h-42.667c-5.887,0-10.666-4.779-10.666-10.667s4.779-10.667,10.666-10.667h42.667
	c5.889,0,10.667,4.779,10.667,10.667S315.222,426.667,309.333,426.667z"/>
<path d="M309.333,362.666h-42.667c-5.887,0-10.666-4.777-10.666-10.666s4.779-10.666,10.666-10.666h42.667
	c5.889,0,10.667,4.777,10.667,10.666S315.222,362.666,309.333,362.666z"/>
<path d="M501.333,426.667h-42.666c-5.889,0-10.667-4.779-10.667-10.667s4.778-10.667,10.667-10.667h42.666
	c5.889,0,10.667,4.779,10.667,10.667S507.222,426.667,501.333,426.667z"/>
<path d="M501.333,362.666h-42.666c-5.889,0-10.667-4.777-10.667-10.666s4.778-10.666,10.667-10.666h42.666
	c5.889,0,10.667,4.777,10.667,10.666S507.222,362.666,501.333,362.666z"/>
<path d="M437.333,469.333H330.667c-17.643,0-32.001-14.357-32.001-32V330.666c0-17.643,14.358-32,32.001-32h106.666
	c17.643,0,32,14.357,32,32v106.667C469.333,454.976,454.976,469.333,437.333,469.333z M330.667,320
	C324.8,320,320,324.779,320,330.666v106.667c0,5.889,4.8,10.667,10.667,10.667h106.666C443.2,448,448,443.222,448,437.333V330.666
	c0-5.887-4.8-10.666-10.667-10.666H330.667z"/>
<path d="M416,426.667h-64c-5.888,0-10.667-4.779-10.667-10.667v-64c0-5.889,4.779-10.666,10.667-10.666h64
	c5.888,0,10.667,4.777,10.667,10.666v64C426.667,421.888,421.888,426.667,416,426.667z M362.667,405.333h42.666v-42.667h-42.666
	V405.333z"/>
<path d="M206.507,341.334c-1.941,0-3.904-0.513-5.675-1.622c-31.979-20.011-64.981-27.755-100.864-23.616
	c-9.237,1.109-18.496-1.791-25.386-7.936C67.861,302.166,64,293.568,64,284.587V33.92C64,17.963,75.947,4.245,91.755,2.027
	c50.88-7.552,98.986,6.634,142.912,42.283C278.592,8.683,326.741-5.482,377.664,2.048c15.723,2.197,27.669,15.915,27.669,31.872
	v168.747c0,5.888-4.778,10.667-10.666,10.667c-5.889,0-10.667-4.779-10.667-10.667V33.92c0-5.376-4.032-10.026-9.365-10.773
	c-48.064-7.189-91.52,6.998-132.928,43.136c-4.032,3.499-10.005,3.499-14.037,0c-41.451-36.139-84.8-50.219-132.885-43.157
	c-5.419,0.768-9.451,5.397-9.451,10.794v250.667c0,2.944,1.216,5.653,3.413,7.616c2.347,2.09,5.589,3.051,8.768,2.688
	c40.427-4.65,78.891,4.373,114.646,26.73c4.971,3.115,6.506,9.707,3.371,14.699C213.525,339.563,210.048,341.334,206.507,341.334
	L206.507,341.334z"/>
<path d="M234.667,298.666c-5.888,0-10.667-4.777-10.667-10.666V53.333c0-5.888,4.779-10.667,10.667-10.667
	c5.888,0,10.667,4.779,10.667,10.667V288C245.333,293.889,240.555,298.666,234.667,298.666z"/>
<text transform="matrix(1 0 0 1 32.5 406.5)" font-family="'MyriadPro-Regular'" font-size="36">FOS-AMMS</text>
<rect x="99" y="416" fill="#A2111A" width="43" height="80.5"/>
<rect x="57" y="438.801" fill="#A2111A" width="126" height="26.833"/>
</svg>
